<?xml version="1.0" encoding="UTF-8"?>
<svg width="25px" height="25px" viewBox="0 0 25 25" version="1.1" xmlns="http://www.w3.org/2000/svg" xmlns:xlink="http://www.w3.org/1999/xlink">
    <title>关 闭</title>
    <g id="考试" stroke="none" stroke-width="1" fill="none" fill-rule="evenodd">
        <g id="选择题-应用" transform="translate(-330.000000, -54.000000)" fill="#FF524A" fill-rule="nonzero">
            <g id="header" transform="translate(0.000000, 44.000000)">
                <g id="关-闭" transform="translate(330.000000, 10.000000)">
                    <path d="M12.5000145,0 C5.59895671,0 0,5.59895671 0,12.5000145 C0,19.4010724 5.59895671,25.0000291 12.5000145,25.0000291 C19.4010724,25.0000291 25.0000291,19.4010724 25.0000291,12.5000145 C25.0000291,5.59895671 19.4010724,0 12.5000145,0 Z M17.6510703,17.4114705 C17.3906452,17.6718956 16.9270949,17.6718956 16.6614696,17.4114705 L12.7291896,13.4791905 L8.79688524,17.4114705 C8.53646013,17.6718956 8.0729342,17.6718956 7.80730889,17.4114705 C7.54688378,17.1510698 7.54688378,16.6875194 7.80730889,16.4218941 L11.7395889,12.4895897 L7.82293391,8.57293478 C7.5625088,8.31250967 7.5625088,7.84895933 7.82293391,7.58333402 C8.0833346,7.32293333 8.54688495,7.32293333 8.81251025,7.58333402 L12.7291896,11.5000134 L16.6458446,7.58333402 C16.9218947,7.32293333 17.36982,7.32293333 17.6354453,7.58333402 C17.895846,7.84375913 17.895846,8.30730947 17.6354453,8.57293478 L13.718766,12.4895897 L17.6510703,16.4218941 C17.911471,16.6875194 17.911471,17.1510698 17.6510703,17.4114705 L17.6510703,17.4114705 Z" id="形状"></path>
                </g>
            </g>
        </g>
    </g>
</svg>