<?xml version="1.0" encoding="UTF-8"?>
<svg width="14px" height="14px" viewBox="0 0 14 14" version="1.1" xmlns="http://www.w3.org/2000/svg" xmlns:xlink="http://www.w3.org/1999/xlink">
    <title>日期</title>
    <defs>
        <filter id="filter-1">
            <feColorMatrix in="SourceGraphic" type="matrix" values="0 0 0 0 0.600000 0 0 0 0 0.600000 0 0 0 0 0.600000 0 0 0 1.000000 0"></feColorMatrix>
        </filter>
    </defs>
    <g id="考试" stroke="none" stroke-width="1" fill="none" fill-rule="evenodd">
        <g id="全部考试" transform="translate(-30.000000, -286.000000)">
            <g id="item" transform="translate(15.000000, 154.000000)">
                <g id="日期" transform="translate(15.000000, 126.000000)" filter="url(#filter-1)">
                    <g transform="translate(0.000000, 6.000000)">
                        <path d="M12.749352,12.6933524 L1.25067192,12.6933524 C0.75787135,12.6933524 0.38827092,12.2826853 0.38827092,11.8309514 L0.38827092,2.96054112 C0.38827092,2.46774055 0.798938064,2.09814012 1.25067192,2.09814012 L3.4682745,2.09814012 L3.4682745,2.96054112 L1.25067192,2.96054112 L1.25067192,11.7898847 L12.749352,11.7898847 L12.749352,2.96054112 L10.5317494,2.96054112 L10.5317494,2.09814012 L12.749352,2.09814012 C13.2421525,2.09814012 13.611753,2.50880726 13.611753,2.96054112 L13.611753,11.7898847 C13.611753,12.2826853 13.2010858,12.6933524 12.749352,12.6933524 Z" id="路径" fill="#000000" fill-rule="nonzero"></path>
                        <path d="M5.23414323,2.09814012 L8.76588067,2.09814012 L8.76588067,2.96054112 L5.23414323,2.96054112 L5.23414323,2.09814012 Z M4.37174222,0.373338112 C4.12534193,0.373338112 3.92000836,0.53760497 3.92000836,0.825071971 L3.92000836,3.41227498 C3.92000836,3.65867527 4.08427522,3.86400884 4.37174222,3.86400884 C4.61814251,3.86400884 4.82347608,3.69974198 4.82347608,3.41227498 L4.82347608,0.825071971 C4.78240937,0.53760497 4.61814251,0.373338112 4.37174222,0.373338112 Z M9.62828167,0.373338112 C9.38188138,0.373338112 9.17654781,0.53760497 9.17654781,0.825071971 L9.17654781,3.41227498 C9.17654781,3.65867527 9.34081467,3.86400884 9.62828167,3.86400884 C9.87468196,3.86400884 10.0800155,3.69974198 10.0800155,3.41227498 L10.0800155,0.825071971 C10.0800155,0.53760497 9.91574867,0.373338112 9.62828167,0.373338112 Z M0.38827092,5.1781437 L13.611753,5.1781437 L13.611753,6.04054471 L0.38827092,6.04054471 L0.38827092,5.1781437 Z M8.8480141,7.19041271 L6.67147823,9.36694858 C6.50721137,9.53121544 6.21974437,9.53121544 6.05547751,9.36694858 L5.11094308,8.42241414 C4.94667622,8.25814729 4.65920922,8.25814729 4.49494237,8.42241414 C4.33067551,8.586681 4.33067551,8.874148 4.49494237,9.03841486 L5.7269438,10.2704163 L6.05547751,10.59895 C6.21974437,10.7632169 6.50721137,10.7632169 6.67147823,10.59895 L9.50508153,7.76534671 C9.66934839,7.60107986 9.66934839,7.31361285 9.50508153,7.149346 C9.34081467,7.02614585 9.01228095,7.02614585 8.8480141,7.19041271 Z" id="形状" fill="#000000" fill-rule="nonzero"></path>
                    </g>
                </g>
            </g>
        </g>
    </g>
</svg>