<?xml version="1.0" encoding="UTF-8"?>
<svg width="178px" height="153px" viewBox="0 0 178 153" version="1.1" xmlns="http://www.w3.org/2000/svg" xmlns:xlink="http://www.w3.org/1999/xlink">
    <title>状态:60/异常态/空状态@2x</title>
    <defs>
        <linearGradient x1="50%" y1="100%" x2="50%" y2="0%" id="linearGradient-1">
            <stop stop-color="#B4B8BF" stop-opacity="0" offset="0%"></stop>
            <stop stop-color="#B4B8BF" offset="100%"></stop>
        </linearGradient>
        <linearGradient x1="50%" y1="100%" x2="50%" y2="0%" id="linearGradient-2">
            <stop stop-color="#B4B8BF" stop-opacity="0" offset="0%"></stop>
            <stop stop-color="#B4B8BF" offset="100%"></stop>
        </linearGradient>
        <linearGradient x1="50%" y1="100%" x2="50%" y2="0%" id="linearGradient-3">
            <stop stop-color="#B4B8BF" stop-opacity="0" offset="0%"></stop>
            <stop stop-color="#B4B8BF" offset="100%"></stop>
        </linearGradient>
        <linearGradient x1="50%" y1="100%" x2="50%" y2="0%" id="linearGradient-4">
            <stop stop-color="#B4B8BF" stop-opacity="0" offset="0%"></stop>
            <stop stop-color="#B4B8BF" offset="100%"></stop>
        </linearGradient>
        <linearGradient x1="100%" y1="49.8464211%" x2="0%" y2="49.8614958%" id="linearGradient-5">
            <stop stop-color="#B4B8BF" stop-opacity="0" offset="0%"></stop>
            <stop stop-color="#B4B8BF" stop-opacity="0.911806468" offset="91.1806468%"></stop>
            <stop stop-color="#B4B8BF" offset="100%"></stop>
        </linearGradient>
    </defs>
    <g id="首页" stroke="none" stroke-width="1" fill="none" fill-rule="evenodd">
        <g id="首页空状态" transform="translate(-98.000000, -496.000000)">
            <g id="状态:60/异常态/空状态" transform="translate(98.000000, 496.000000)">
                <g id="background/default/hill">
                    <path d="M0,117.81 C22.0570232,108.8 51.7236898,104.295 89,104.295 C126.27631,104.295 155.942977,108.8 178,117.81" id="路径-19" fill="url(#linearGradient-1)" opacity="0.16"></path>
                    <path d="M123.074286,79.815 L136.896708,65.9537505 C140.907892,61.9312995 147.420439,61.9221655 151.44289,65.9333492 C151.4497,65.9401401 151.456501,65.9469405 151.463292,65.9537505 L165.285714,79.815 L165.285714,79.815" id="路径-22备份-2" fill="url(#linearGradient-2)" opacity="0.26"></path>
                    <path d="M24.92,53.55 L34.9281367,43.5137505 C38.9393204,39.4912995 45.451868,39.4821655 49.474319,43.4933492 C49.481129,43.5001401 49.4879295,43.5069405 49.4947204,43.5137505 L59.5028571,53.55 L59.5028571,53.55" id="路径-22" fill="url(#linearGradient-3)" opacity="0.26"></path>
                    <path d="M12.2057143,69.105 L17.6367081,63.6587505 C21.6478918,59.6362995 28.1604395,59.6271655 32.1828905,63.6383492 C32.1897005,63.6451401 32.1965009,63.6519405 32.2032919,63.6587505 L37.6342857,69.105 L37.6342857,69.105" id="路径-22备份" fill="url(#linearGradient-4)" opacity="0.26"></path>
                </g>
                <ellipse id="椭圆形备份-8" fill="url(#linearGradient-5)" opacity="0.16" cx="89" cy="120" rx="38" ry="2"></ellipse>
                <path d="M47.8992729,111.538102 C26.6217128,110.600301 16.7200205,108.108626 18.194196,104.063075 C20.4054592,97.9947487 124.254565,97.4737071 138.677089,87.4241801 C153.099612,77.3746531 99.1634177,67.4390465 99.1642668,58.8230837 C99.1648328,53.0791085 112.337324,46.8809687 138.681739,40.2286644" id="路径-20" stroke="#E6E8ED" stroke-width="3.6" stroke-linecap="round" stroke-dasharray="7.199999999999999" transform="translate(79.589519, 75.883383) rotate(-4.000000) translate(-79.589519, -75.883383) "></path>
                <g id="objects/element/mail" transform="translate(38.000000, 25.000000)">
                    <rect id="矩形" fill="#C9CDD4" x="15.3" y="44.625" width="71.4" height="42.84" rx="8.36129032"></rect>
                    <rect id="矩形" fill="#E6E8ED" x="23.97" y="15.81" width="53.805" height="62.22" rx="9.29032258"></rect>
                    <rect id="矩形" fill="#F0F2F5" x="29.07" y="29.07" width="28.305" height="3.825" rx="1.9125"></rect>
                    <rect id="矩形备份" fill="#F0F2F5" x="29.07" y="37.485" width="28.305" height="3.825" rx="1.9125"></rect>
                    <rect id="矩形备份-2" fill="#F0F2F5" x="29.07" y="46.41" width="39.27" height="3.825" rx="1.9125"></rect>
                    <path d="M15.3,50.235 L81.7533262,79.9656796 C84.7627107,81.3120539 86.7,84.3011165 86.7,87.5979512 L86.7,87.6268907 C86.7,90.6357984 84.2607984,93.075 81.2518907,93.075 L23.6612903,93.075 C19.0434772,93.075 15.3,89.3315228 15.3,84.7137097 L15.3,50.235 L15.3,50.235 Z" id="矩形" fill="#D7DAE0" transform="translate(51.000000, 71.655000) scale(-1, 1) translate(-51.000000, -71.655000) "></path>
                    <path d="M15.3,50.235 L81.7533262,79.9656796 C84.7627107,81.3120539 86.7,84.3011165 86.7,87.5979512 L86.7,87.6268907 C86.7,90.6357984 84.2607984,93.075 81.2518907,93.075 L23.6612903,93.075 C19.0434772,93.075 15.3,89.3315228 15.3,84.7137097 L15.3,50.235 L15.3,50.235 Z" id="矩形" fill="#DFE2E8"></path>
                </g>
                <g id="编组" transform="translate(127.397143, 14.005548)">
                    <g id="objects/element/paperairplane" transform="translate(15.257143, 15.278779) scale(-1, 1) rotate(-29.000000) translate(-15.257143, -15.278779) ">
                        <path d="M18.086605,26.4471719 L20.1237818,18.1734255 L3.81913283,3.17725144 C3.71980839,3.08589795 3.5652334,3.09235969 3.47387992,3.19168412 C3.39887632,3.27323208 3.38812965,3.39503989 3.4476964,3.4884605 L18.086605,26.4471719 L18.086605,26.4471719 Z" id="路径-17" fill="#C9CDD4"></path>
                        <polygon id="路径-14" fill="#B4B8BF" points="14.5927538 22.6242287 18.5561811 20.3160031 18.086605 26.4471719"></polygon>
                        <path d="M3.75660685,2.4745817 L27.7956317,12.7946369 C28.1871279,12.9627079 28.3682498,13.4163267 28.2001788,13.8078228 C28.1295978,13.9722308 28.0040639,14.1069929 27.8450669,14.1890395 L20.2755446,18.0951119 C20.1843974,18.1421463 20.0735775,18.1272501 19.9980855,18.0578166 L4.78710342,4.067819 L18.3899834,20.1198819 C18.3913196,20.1214588 18.3926358,20.1230525 18.3939315,20.1246626 C18.4796664,20.2367878 18.4591271,20.3901283 18.3518813,20.4720376 L18.3518813,20.4720376 L8.88286057,27.7040282 C8.74558935,27.8088694 8.585174,27.8792567 8.41507556,27.9092834 C7.82768967,28.0129719 7.26746311,27.6208578 7.16377454,27.0334719 L7.16377454,27.0334719 L2.98252468,3.34709008 C2.95231587,3.1759601 3.01525691,3.00166094 3.14783195,2.8893137 C3.22997344,2.81970505 3.32842167,2.78191839 3.42817165,2.77471446 C3.40129856,2.69468087 3.4181354,2.60136784 3.4803733,2.53369944 C3.55057623,2.45737103 3.66131332,2.43367178 3.75660685,2.4745817 Z" id="形状结合" fill="#D7DAE0"></path>
                    </g>
                </g>
            </g>
        </g>
    </g>
</svg>