<?xml version="1.0" encoding="UTF-8"?>
<svg width="20px" height="20px" viewBox="0 0 20 20" version="1.1" xmlns="http://www.w3.org/2000/svg" xmlns:xlink="http://www.w3.org/1999/xlink">
    <title>形状</title>
    <g id="考试" stroke="none" stroke-width="1" fill="none" fill-rule="evenodd">
        <g id="选择题" transform="translate(-90.000000, -777.000000)" fill="#C6C6C6" fill-rule="nonzero">
            <g id="bottom" transform="translate(0.000000, 762.000000)">
                <g id="错误" transform="translate(90.000000, 15.000000)">
                    <path d="M14.7245183,18.1781485 L14.7245185,18.1781484 C12.4809456,19.4351598 9.82824525,19.7440367 7.35588495,19.0361494 L7.35588478,19.0361493 C4.88002253,18.3395499 2.78537946,16.6820606 1.53825301,14.4326439 L1.5382538,14.4326454 C0.279162689,12.1897384 -0.0298152093,9.53620021 0.680250656,7.06401178 L0.680250511,7.0640123 C1.37540835,4.58705434 3.03324348,2.49148745 5.28375587,1.24500553 C9.2685105,-0.972872054 14.3271414,-0.0914960288 17.3163949,3.34738297 L17.3163948,3.34738295 C17.5703598,3.67224426 17.5128849,4.1414743 17.1880234,4.39543924 C16.886535,4.63112956 16.4556567,4.60071538 16.1902685,4.3250093 L16.1902687,4.32500947 C13.6369122,1.41219748 9.39872758,0.672639982 6.00975684,2.5485074 L6.00975635,2.54850767 C4.10588187,3.60345831 2.70283454,5.37583322 2.11300182,7.4710134 L2.11300143,7.47101476 C1.51318276,9.56330528 1.77509049,11.8085862 2.84037728,13.706647 L2.84037772,13.7066478 C3.89441743,15.6110143 5.66723062,17.0139134 7.76288345,17.6020274 L7.76288305,17.6020272 C9.85499311,18.2022627 12.1002611,17.9408513 13.9985153,16.8760264 L13.9985157,16.8760262 C17.3767443,14.9797851 18.975334,10.9844236 17.8375202,7.28126499 L17.8375202,7.28126482 C17.7330802,6.88235967 17.971791,6.47431935 18.3706964,6.36987939 C18.7442929,6.27206564 19.1308273,6.47529518 19.2620218,6.83851646 C20.6163984,11.1876465 18.7078962,15.9589021 14.7245165,18.1781547 L14.7245183,18.1781485 Z M5.98913313,5.3026335 L5.19850721,5.96400927 C6.60788385,7.00901048 7.92101038,8.21076188 9.07326172,9.41526328 C7.30638467,11.1890153 5.92175805,12.9325174 5.19300721,13.6323932 L6.69863396,14.8877697 C7.23213458,13.7891434 8.39538593,12.1185164 9.95188774,10.3708894 C11.5097646,12.1295164 12.6757659,13.8056434 13.2133915,14.9125197 C13.2133915,14.9125197 14.6805182,13.3601429 14.8111434,13.6007682 C14.2446427,12.9668924 12.8682661,11.1230153 11.013389,9.23376307 L11.0133889,9.23376319 C12.1065667,8.10700954 13.286245,7.06753411 14.541643,6.12488458 L14.1951426,5.48000883 C12.7500159,6.19500966 11.3791393,7.25651089 10.1443878,8.38676221 C8.9000114,7.21251084 7.49063476,6.08913454 5.98913301,5.3026335 L5.98913313,5.3026335 Z" id="形状"></path>
                </g>
            </g>
        </g>
    </g>
</svg>