<?xml version="1.0" encoding="UTF-8"?>
<svg width="20px" height="20px" viewBox="0 0 20 20" version="1.1" xmlns="http://www.w3.org/2000/svg" xmlns:xlink="http://www.w3.org/1999/xlink">
    <title>正确</title>
    <g id="考试" stroke="none" stroke-width="1" fill="none" fill-rule="evenodd">
        <g id="选择题" transform="translate(-20.000000, -777.000000)" fill="#C6C6C6" fill-rule="nonzero">
            <g id="bottom" transform="translate(0.000000, 762.000000)">
                <g id="正确" transform="translate(20.000000, 15.000000)">
                    <path d="M16.7993951,3.69080098 L16.7993952,3.69080093 C16.5266394,3.91104468 16.4840042,4.31067089 16.7041569,4.58350026 L16.7041573,4.58350083 C17.9476314,6.11287501 18.6229536,8.02575186 18.6152704,9.99683303 C18.6152704,14.7523947 14.7460527,18.6216124 9.99112533,18.6216124 C5.23619793,18.6216124 1.36634595,14.7523947 1.36634595,9.99683303 C1.36634595,5.24190562 5.23556362,1.37332225 9.99049103,1.37332225 C11.5968428,1.37332225 13.1657421,1.81776696 14.5257251,2.65967308 L14.5257252,2.65967311 C14.8239593,2.84429428 15.2153908,2.75219271 15.4000113,2.45395895 C15.5846325,2.15572479 15.4925309,1.76429334 15.1942972,1.57967278 L15.1942973,1.57967284 C13.630902,0.613378191 11.8290218,0.102170192 9.99112344,0.103477208 C4.53525213,0.103477208 0.0971480114,4.54158384 0.0971480114,9.99682084 C0.0971480114,15.4526921 4.53525213,19.8914306 9.99112344,19.8914306 C15.4469947,19.8914306 19.8850989,15.4526921 19.8850989,9.99682084 C19.8850989,7.74284129 19.10605,5.53713001 17.6927079,3.78602865 L17.6927079,3.78602866 C17.473078,3.51312358 17.0737997,3.46993379 16.8008925,3.68956349 C16.8003853,3.68997173 16.7998786,3.69038075 16.7993726,3.69079054 L16.7993951,3.69080098 Z" id="路径"></path>
                    <path d="M14.189859,6.80573206 L9.16381888,11.8412867 L5.79111592,8.4685837 L5.79111597,8.46858375 C5.54320032,8.22066809 5.14125175,8.22066809 4.89333814,8.46858366 C4.64542249,8.71649931 4.64542249,9.11844788 4.89333805,9.36636149 C4.89333805,9.36636149 4.89333805,9.36636149 4.89333805,9.36636149 L8.71555604,13.1885795 L8.71555605,13.1885795 C8.83448019,13.3078365 8.99602569,13.3747854 9.16444497,13.3746118 L9.1650799,13.3746118 C9.33333406,13.3746118 9.49523989,13.3079448 9.61396882,13.1879446 L15.0888896,7.70158588 L15.0888896,7.70158587 C15.3362794,7.45332032 15.3355674,7.05151294 15.0873023,6.80412519 C14.8390368,6.55673539 14.4372294,6.55744744 14.1898416,6.80571251 L14.189859,6.80573206 Z" id="路径"></path>
                </g>
            </g>
        </g>
    </g>
</svg>