<?xml version="1.0" encoding="UTF-8"?>
<svg width="25px" height="25px" viewBox="0 0 25 25" version="1.1" xmlns="http://www.w3.org/2000/svg" xmlns:xlink="http://www.w3.org/1999/xlink">
    <title>应用</title>
    <g id="考试" stroke="none" stroke-width="1" fill="none" fill-rule="evenodd">
        <g id="选择题" transform="translate(-330.000000, -54.000000)" fill="#3E7DEB" fill-rule="nonzero">
            <g id="header" transform="translate(0.000000, 44.000000)">
                <g id="应用" transform="translate(330.000000, 10.000000)">
                    <path d="M19.0586031,11.7049629 C17.3038043,11.7049629 13.256338,11.6680917 13.256338,11.6680917 C13.256338,11.6680917 13.2677894,7.35869029 13.2677894,5.91544215 C13.2677894,2.71874135 15.8605838,0.125933458 19.0586073,0.125933458 C22.2566106,0.125933458 24.8493916,2.71870106 24.8493916,5.91544215 C24.8493916,9.11349915 22.2565971,11.7049629 19.0586073,11.7049629 L19.0586031,11.7049629 Z M5.8989381,24.86587 C2.69966253,24.86587 0.10942941,22.2743746 0.10942941,19.0763613 C0.10942941,15.8782774 2.69965246,13.2867854 5.8989381,13.2867854 C7.65373689,13.2867854 11.6999275,13.3249844 11.6999275,13.3249844 C11.6999275,13.3249844 11.6897485,17.6330765 11.6897485,19.0763582 C11.6897485,22.2743884 9.09698091,24.86587 5.89896418,24.86587 L5.8989381,24.86587 Z M0.109403327,5.91538709 C0.109403327,2.71868629 2.69965246,0.125878404 5.8989381,0.125878404 C9.09696825,0.125878404 11.6897224,2.71864601 11.6897224,5.91538709 C11.6897224,7.35867552 11.6999014,11.6680366 11.6999014,11.6680366 C11.6999014,11.6680366 7.65375109,11.7049079 5.89891202,11.7049079 C2.69963644,11.7049079 0.109403327,9.11346961 0.109403327,5.91539918 L0.109403327,5.91538709 Z M24.849421,19.0763277 C24.849421,22.2743579 22.2566265,24.8658364 19.0586366,24.8658364 C15.8606065,24.8658364 13.2678187,22.2743411 13.2678187,19.0763277 C13.2678187,17.6330695 13.2563674,13.3249538 13.2563674,13.3249538 C13.2563674,13.3249538 17.3038605,13.2867828 19.0586324,13.2867828 C22.2566357,13.2867828 24.849421,15.8782781 24.849421,19.076325 L24.849421,19.0763277 Z M14.8242045,19.105537 C14.8242045,19.4463668 14.825474,19.4069238 14.8280464,19.1474977 C14.856011,21.3358718 16.957946,23.1338945 19.1514126,23.1338945 C21.3588978,23.1338945 23.1492902,21.3460971 23.1492902,19.1385682 C23.1492902,16.9311636 21.3588944,14.8457166 19.1514126,14.8457166 C17.9408607,14.8457166 14.8445625,14.8571679 14.8445625,14.8571679 C14.8445625,14.8571679 14.8318388,18.2738925 14.8280493,19.1474683 C14.8280493,19.1334999 14.8242045,19.1208038 14.8242045,19.1055076 L14.8242045,19.105537 Z" id="形状"></path>
                </g>
            </g>
        </g>
    </g>
</svg>