<?xml version="1.0" encoding="UTF-8"?>
<svg width="14px" height="14px" viewBox="0 0 14 14" version="1.1" xmlns="http://www.w3.org/2000/svg" xmlns:xlink="http://www.w3.org/1999/xlink">
    <title>时间</title>
    <defs>
        <filter id="filter-1">
            <feColorMatrix in="SourceGraphic" type="matrix" values="0 0 0 0 0.600000 0 0 0 0 0.600000 0 0 0 0 0.600000 0 0 0 1.000000 0"></feColorMatrix>
        </filter>
    </defs>
    <g id="考试" stroke="none" stroke-width="1" fill="none" fill-rule="evenodd">
        <g id="全部考试" transform="translate(-180.000000, -286.000000)">
            <g id="item" transform="translate(15.000000, 154.000000)">
                <g id="时间" transform="translate(165.000000, 130.000000)" filter="url(#filter-1)">
                    <g transform="translate(0.000000, 2.000000)">
                        <path d="M7.07627605,13.6627775 C3.31243501,13.6627775 0.25071615,10.6010587 0.25071615,6.83721764 C0.25071615,3.07337659 3.31243501,0.0116577325 7.07627605,0.0116577325 C10.8401171,0.0116577325 13.901836,3.07337659 13.901836,6.83721764 C13.901836,10.6010587 10.8401171,13.6627775 7.07627605,13.6627775 Z M7.07627605,0.921724925 C3.81458639,0.921724925 1.16078334,3.57551399 1.16078334,6.83721764 C1.16078334,10.0989073 3.8145724,12.7527103 7.07627605,12.7527103 C10.3379657,12.7527103 12.9917688,10.0989213 12.9917688,6.83721764 C12.9917688,3.57552798 10.3379797,0.921724925 7.07627605,0.921724925 Z" id="形状" fill="#000000" fill-rule="nonzero"></path>
                        <path d="M6.80964366,7.81484178 C6.55813428,7.81484178 6.35460866,7.61087128 6.35460866,7.3593619 L6.35460866,3.07115361 C6.35460866,2.81964423 6.55813288,2.61611861 6.80964366,2.61611861 C7.06115304,2.61611861 7.26467865,2.81964283 7.26467865,3.07115361 L7.26467865,7.35934791 C7.26467865,7.61086848 7.06116563,7.81484178 6.80964366,7.81484178 L6.80964366,7.81484178 Z" id="路径" fill="#000000" fill-rule="nonzero"></path>
                        <path d="M11.097852,7.81484178 L6.80965765,7.81484178 C6.55814827,7.81484178 6.35462265,7.61087128 6.35462265,7.3593619 C6.35462265,7.10785253 6.55814687,6.90432691 6.80965765,6.90432691 L11.097852,6.90432691 C11.3493613,6.90432691 11.552887,7.10785113 11.552887,7.3593619 C11.552887,7.61087128 11.3493739,7.81484178 11.097852,7.81484178 Z" id="路径" fill="#000000" fill-rule="nonzero"></path>
                    </g>
                </g>
            </g>
        </g>
    </g>
</svg>